<?xml version="1.0" encoding="utf-8"?>
<!-- Generator: Adobe Illustrator 22.0.1, SVG Export Plug-In . SVG Version: 6.00 Build 0)  -->
<svg version="1.1" id="Calque_1" xmlns="http://www.w3.org/2000/svg" xmlns:xlink="http://www.w3.org/1999/xlink" x="0px" y="0px"
	 viewBox="0 0 1920 1080" style="enable-background:new 0 0 1920 1080;" xml:space="preserve">
<style type="text/css">
	.st0{opacity:0.2;}
	.st1{fill:#4995D1;}
</style>
<g class="st0">
	<g>
		<g>
			<g>
				<path class="st1" d="M1077.7,1302.8l-60.4-60.4c-0.6-0.6-0.6-1.7,0-2.3l22.4-22.4c0.6-0.6,1.7-0.6,2.3,0l60.4,60.4
					c0.6,0.6,0.6,1.7,0,2.3l-22.4,22.4C1079.4,1303.4,1078.3,1303.4,1077.7,1302.8z"/>
			</g>
		</g>
		<circle class="st1" cx="1121.6" cy="1322.3" r="20.2"/>
		<g>
			<g>
				<path class="st1" d="M1077.7,1302.8l-60.4-60.4c-0.6-0.6-0.6-1.7,0-2.3l22.4-22.4c0.6-0.6,1.7-0.6,2.3,0l60.4,60.4
					c0.6,0.6,0.6,1.7,0,2.3l-22.4,22.4C1079.4,1303.4,1078.3,1303.4,1077.7,1302.8z"/>
			</g>
		</g>
		<g>
			<g>
				<path class="st1" d="M953.8,1178.9l-60.4-60.4c-0.6-0.6-0.6-1.7,0-2.3l22.4-22.4c0.6-0.6,1.7-0.6,2.3,0l60.4,60.4
					c0.6,0.6,0.6,1.7,0,2.3l-22.4,22.4C955.5,1179.5,954.5,1179.5,953.8,1178.9z"/>
			</g>
		</g>
		<circle class="st1" cx="997.7" cy="1198.5" r="20.2"/>
		<g>
			<g>
				<path class="st1" d="M953.8,1178.9l-60.4-60.4c-0.6-0.6-0.6-1.7,0-2.3l22.4-22.4c0.6-0.6,1.7-0.6,2.3,0l60.4,60.4
					c0.6,0.6,0.6,1.7,0,2.3l-22.4,22.4C955.5,1179.5,954.5,1179.5,953.8,1178.9z"/>
			</g>
		</g>
		<circle class="st1" cx="873.8" cy="1074.6" r="20.2"/>
		<g>
			<g>
				<path class="st1" d="M1295.9,1332.3l-60.4-60.4c-0.6-0.6-0.6-1.7,0-2.3l22.4-22.4c0.6-0.6,1.7-0.6,2.3,0l60.4,60.4
					c0.6,0.6,0.6,1.7,0,2.3l-22.4,22.4C1297.6,1333,1296.5,1333,1295.9,1332.3z"/>
			</g>
		</g>
		<circle class="st1" cx="1339.8" cy="1351.9" r="20.2"/>
		<g>
			<g>
				<path class="st1" d="M1295.9,1332.3l-60.4-60.4c-0.6-0.6-0.6-1.7,0-2.3l22.4-22.4c0.6-0.6,1.7-0.6,2.3,0l60.4,60.4
					c0.6,0.6,0.6,1.7,0,2.3l-22.4,22.4C1297.6,1333,1296.5,1333,1295.9,1332.3z"/>
			</g>
		</g>
		<g>
			<g>
				<path class="st1" d="M1172,1208.5l-60.4-60.4c-0.6-0.6-0.6-1.7,0-2.3l22.4-22.4c0.6-0.6,1.7-0.6,2.3,0l60.4,60.4
					c0.6,0.6,0.6,1.7,0,2.3l-22.4,22.4C1173.7,1209.1,1172.7,1209.1,1172,1208.5z"/>
			</g>
		</g>
		<circle class="st1" cx="1215.9" cy="1228" r="20.2"/>
		<g>
			<g>
				<path class="st1" d="M1172,1208.5l-60.4-60.4c-0.6-0.6-0.6-1.7,0-2.3l22.4-22.4c0.6-0.6,1.7-0.6,2.3,0l60.4,60.4
					c0.6,0.6,0.6,1.7,0,2.3l-22.4,22.4C1173.7,1209.1,1172.7,1209.1,1172,1208.5z"/>
			</g>
		</g>
		<g>
			<g>
				<path class="st1" d="M1048.1,1084.6l-60.4-60.4c-0.6-0.6-0.6-1.7,0-2.3l22.4-22.4c0.6-0.6,1.7-0.6,2.3,0l60.4,60.4
					c0.6,0.6,0.6,1.7,0,2.3l-22.4,22.4C1049.8,1085.2,1048.8,1085.2,1048.1,1084.6z"/>
			</g>
		</g>
		<circle class="st1" cx="1092.1" cy="1104.1" r="20.2"/>
		<g>
			<g>
				<path class="st1" d="M1048.1,1084.6l-60.4-60.4c-0.6-0.6-0.6-1.7,0-2.3l22.4-22.4c0.6-0.6,1.7-0.6,2.3,0l60.4,60.4
					c0.6,0.6,0.6,1.7,0,2.3l-22.4,22.4C1049.8,1085.2,1048.8,1085.2,1048.1,1084.6z"/>
			</g>
		</g>
		<circle class="st1" cx="968.2" cy="980.2" r="20.2"/>
		<g>
			<g>
				<path class="st1" d="M1512.3,1363.7l-60.4-60.4c-0.6-0.6-0.6-1.7,0-2.3l22.4-22.4c0.6-0.6,1.7-0.6,2.3,0l60.4,60.4
					c0.6,0.6,0.6,1.7,0,2.3l-22.4,22.4C1514,1364.3,1513,1364.3,1512.3,1363.7z"/>
			</g>
		</g>
		<circle class="st1" cx="1556.2" cy="1383.2" r="20.2"/>
		<g>
			<g>
				<path class="st1" d="M1512.3,1363.7l-60.4-60.4c-0.6-0.6-0.6-1.7,0-2.3l22.4-22.4c0.6-0.6,1.7-0.6,2.3,0l60.4,60.4
					c0.6,0.6,0.6,1.7,0,2.3l-22.4,22.4C1514,1364.3,1513,1364.3,1512.3,1363.7z"/>
			</g>
		</g>
		<g>
			<g>
				<path class="st1" d="M1388.5,1239.8l-60.4-60.4c-0.6-0.6-0.6-1.7,0-2.3l22.4-22.4c0.6-0.6,1.7-0.6,2.3,0l60.4,60.4
					c0.6,0.6,0.6,1.7,0,2.3l-22.4,22.4C1390.1,1240.4,1389.1,1240.4,1388.5,1239.8z"/>
			</g>
		</g>
		<circle class="st1" cx="1432.4" cy="1259.3" r="20.2"/>
		<g>
			<g>
				<path class="st1" d="M1388.5,1239.8l-60.4-60.4c-0.6-0.6-0.6-1.7,0-2.3l22.4-22.4c0.6-0.6,1.7-0.6,2.3,0l60.4,60.4
					c0.6,0.6,0.6,1.7,0,2.3l-22.4,22.4C1390.1,1240.4,1389.1,1240.4,1388.5,1239.8z"/>
			</g>
		</g>
		<g>
			<g>
				<path class="st1" d="M1264.6,1115.9l-60.4-60.4c-0.6-0.6-0.6-1.7,0-2.3l22.4-22.4c0.6-0.6,1.7-0.6,2.3,0l60.4,60.4
					c0.6,0.6,0.6,1.7,0,2.3l-22.4,22.4C1266.2,1116.5,1265.2,1116.5,1264.6,1115.9z"/>
			</g>
		</g>
		<circle class="st1" cx="1308.5" cy="1135.5" r="20.2"/>
		<g>
			<g>
				<path class="st1" d="M1264.6,1115.9l-60.4-60.4c-0.6-0.6-0.6-1.7,0-2.3l22.4-22.4c0.6-0.6,1.7-0.6,2.3,0l60.4,60.4
					c0.6,0.6,0.6,1.7,0,2.3l-22.4,22.4C1266.2,1116.5,1265.2,1116.5,1264.6,1115.9z"/>
			</g>
		</g>
		<g>
			<g>
				<path class="st1" d="M1140.7,992l-60.4-60.4c-0.6-0.6-0.6-1.7,0-2.3l22.4-22.4c0.6-0.6,1.7-0.6,2.3,0l60.4,60.4
					c0.6,0.6,0.6,1.7,0,2.3L1143,992C1142.4,992.7,1141.3,992.7,1140.7,992z"/>
			</g>
		</g>
		<circle class="st1" cx="1184.6" cy="1011.6" r="20.2"/>
		<g>
			<g>
				<path class="st1" d="M1140.7,992l-60.4-60.4c-0.6-0.6-0.6-1.7,0-2.3l22.4-22.4c0.6-0.6,1.7-0.6,2.3,0l60.4,60.4
					c0.6,0.6,0.6,1.7,0,2.3L1143,992C1142.4,992.7,1141.3,992.7,1140.7,992z"/>
			</g>
		</g>
		<g>
			<g>
				<path class="st1" d="M1016.8,868.2l-60.4-60.4c-0.6-0.6-0.6-1.7,0-2.3l22.4-22.4c0.6-0.6,1.7-0.6,2.3,0l60.4,60.4
					c0.6,0.6,0.6,1.7,0,2.3l-22.4,22.4C1018.5,868.8,1017.5,868.8,1016.8,868.2z"/>
			</g>
		</g>
		<circle class="st1" cx="1060.7" cy="887.7" r="20.2"/>
		<g>
			<g>
				<path class="st1" d="M968.3,1289.9l-60.4-60.4c-0.6-0.6-0.6-1.7,0-2.3l22.4-22.4c0.6-0.6,1.7-0.6,2.3,0l60.4,60.4
					c0.6,0.6,0.6,1.7,0,2.3l-22.4,22.4C970,1290.5,969,1290.5,968.3,1289.9z"/>
			</g>
		</g>
		<circle class="st1" cx="1012.2" cy="1309.4" r="20.2"/>
		<g>
			<g>
				<path class="st1" d="M844.4,1166l-60.4-60.4c-0.6-0.6-0.6-1.7,0-2.3l22.4-22.4c0.6-0.6,1.7-0.6,2.3,0l60.4,60.4
					c0.6,0.6,0.6,1.7,0,2.3l-22.4,22.4C846.1,1166.6,845.1,1166.6,844.4,1166z"/>
			</g>
		</g>
		<circle class="st1" cx="888.4" cy="1185.5" r="20.2"/>
		<circle class="st1" cx="764.5" cy="1061.6" r="20.2"/>
		<g>
			<g>
				<path class="st1" d="M1186.7,1319.2l-60.4-60.4c-0.6-0.6-0.6-1.7,0-2.3l22.4-22.4c0.6-0.6,1.7-0.6,2.3,0l60.4,60.4
					c0.6,0.6,0.6,1.7,0,2.3l-22.4,22.4C1188.4,1319.9,1187.3,1319.9,1186.7,1319.2z"/>
			</g>
		</g>
		<circle class="st1" cx="1230.6" cy="1338.8" r="20.2"/>
		<g>
			<g>
				<path class="st1" d="M1062.8,1195.4l-60.4-60.4c-0.6-0.6-0.6-1.7,0-2.3l22.4-22.4c0.6-0.6,1.7-0.6,2.3,0l60.4,60.4
					c0.6,0.6,0.6,1.7,0,2.3l-22.4,22.4C1064.5,1196,1063.5,1196,1062.8,1195.4z"/>
			</g>
		</g>
		<circle class="st1" cx="1106.7" cy="1214.9" r="20.2"/>
		<g>
			<g>
				<path class="st1" d="M938.9,1071.5l-60.4-60.4c-0.6-0.6-0.6-1.7,0-2.3l22.4-22.4c0.6-0.6,1.7-0.6,2.3,0l60.4,60.4
					c0.6,0.6,0.6,1.7,0,2.3l-22.4,22.4C940.6,1072.1,939.6,1072.1,938.9,1071.5z"/>
			</g>
		</g>
		<circle class="st1" cx="982.8" cy="1091" r="20.2"/>
		<circle class="st1" cx="859" cy="967.2" r="20.2"/>
		<g>
			<g>
				<path class="st1" d="M1404.3,1348.2l-60.4-60.4c-0.6-0.6-0.6-1.7,0-2.3l22.4-22.4c0.6-0.6,1.7-0.6,2.3,0l60.4,60.4
					c0.6,0.6,0.6,1.7,0,2.3l-22.4,22.4C1406,1348.9,1405,1348.9,1404.3,1348.2z"/>
			</g>
		</g>
		<circle class="st1" cx="1448.2" cy="1367.8" r="20.2"/>
		<g>
			<g>
				<path class="st1" d="M1281,1224.9l-60.4-60.4c-0.6-0.6-0.6-1.7,0-2.3l22.4-22.4c0.6-0.6,1.7-0.6,2.3,0l60.4,60.4
					c0.6,0.6,0.6,1.7,0,2.3l-22.4,22.4C1282.7,1225.6,1281.7,1225.6,1281,1224.9z"/>
			</g>
		</g>
		<circle class="st1" cx="1324.9" cy="1244.5" r="20.2"/>
		<g>
			<g>
				<path class="st1" d="M1157.1,1101l-60.4-60.4c-0.6-0.6-0.6-1.7,0-2.3l22.4-22.4c0.6-0.6,1.7-0.6,2.3,0l60.4,60.4
					c0.6,0.6,0.6,1.7,0,2.3l-22.4,22.4C1158.8,1101.7,1157.8,1101.7,1157.1,1101z"/>
			</g>
		</g>
		<circle class="st1" cx="1201.1" cy="1120.6" r="20.2"/>
		<g>
			<g>
				<path class="st1" d="M1033.3,977.2l-60.4-60.4c-0.6-0.6-0.6-1.7,0-2.3l22.4-22.4c0.6-0.6,1.7-0.6,2.3,0l60.4,60.4
					c0.6,0.6,0.6,1.7,0,2.3l-22.4,22.4C1034.9,977.8,1033.9,977.8,1033.3,977.2z"/>
			</g>
		</g>
		<circle class="st1" cx="1077.2" cy="996.7" r="20.2"/>
		<circle class="st1" cx="953.3" cy="872.8" r="20.2"/>
		<g>
			<g>
				<path class="st1" d="M983.4,1397.1l-60.4-60.4c-0.6-0.6-0.6-1.7,0-2.3l22.4-22.4c0.6-0.6,1.7-0.6,2.3,0l60.4,60.4
					c0.6,0.6,0.6,1.7,0,2.3l-22.4,22.4C985,1397.8,984,1397.8,983.4,1397.1z"/>
			</g>
		</g>
		<g>
			<g>
				<path class="st1" d="M859.5,1273.2l-60.4-60.4c-0.6-0.6-0.6-1.7,0-2.3l22.4-22.4c0.6-0.6,1.7-0.6,2.3,0l60.4,60.4
					c0.6,0.6,0.6,1.7,0,2.3l-22.4,22.4C861.2,1273.9,860.1,1273.9,859.5,1273.2z"/>
			</g>
		</g>
		<circle class="st1" cx="903.4" cy="1292.8" r="20.2"/>
		<g>
			<g>
				<path class="st1" d="M859.5,1273.2l-60.4-60.4c-0.6-0.6-0.6-1.7,0-2.3l22.4-22.4c0.6-0.6,1.7-0.6,2.3,0l60.4,60.4
					c0.6,0.6,0.6,1.7,0,2.3l-22.4,22.4C861.2,1273.9,860.1,1273.9,859.5,1273.2z"/>
			</g>
		</g>
		<circle class="st1" cx="779.5" cy="1168.9" r="20.2"/>
		<g>
			<g>
				<path class="st1" d="M873.4,1383.6l-60.4-60.4c-0.6-0.6-0.6-1.7,0-2.3l22.4-22.4c0.6-0.6,1.7-0.6,2.3,0l60.4,60.4
					c0.6,0.6,0.6,1.7,0,2.3l-22.4,22.4C875.1,1384.3,874.1,1384.3,873.4,1383.6z"/>
			</g>
		</g>
		<circle class="st1" cx="793.5" cy="1279.3" r="20.2"/>
		<circle class="st1" cx="1947.7" cy="1116.1" r="20.2"/>
		<g>
			<g>
				<path class="st1" d="M1919.4,1204.4l-60.4-60.4c-0.6-0.6-0.6-1.7,0-2.3l22.4-22.4c0.6-0.6,1.7-0.6,2.3,0l60.4,60.4
					c0.6,0.6,0.6,1.7,0,2.3l-22.4,22.4C1921,1205,1920,1205,1919.4,1204.4z"/>
			</g>
		</g>
		<g>
			<g>
				<path class="st1" d="M1933.3,1314.8l-60.4-60.4c-0.6-0.6-0.6-1.7,0-2.3l22.4-22.4c0.6-0.6,1.7-0.6,2.3,0l60.4,60.4
					c0.6,0.6,0.6,1.7,0,2.3l-22.4,22.4C1935,1315.4,1933.9,1315.4,1933.3,1314.8z"/>
			</g>
		</g>
		<g>
			<g>
				<path class="st1" d="M1809.4,1190.9l-60.4-60.4c-0.6-0.6-0.6-1.7,0-2.3l22.4-22.4c0.6-0.6,1.7-0.6,2.3,0l60.4,60.4
					c0.6,0.6,0.6,1.7,0,2.3l-22.4,22.4C1811.1,1191.5,1810.1,1191.5,1809.4,1190.9z"/>
			</g>
		</g>
		<circle class="st1" cx="1853.3" cy="1210.4" r="20.2"/>
		<g>
			<g>
				<path class="st1" d="M1825,1298.7l-60.4-60.4c-0.6-0.6-0.6-1.7,0-2.3l22.4-22.4c0.6-0.6,1.7-0.6,2.3,0l60.4,60.4
					c0.6,0.6,0.6,1.7,0,2.3l-22.4,22.4C1826.7,1299.4,1825.7,1299.4,1825,1298.7z"/>
			</g>
		</g>
		<circle class="st1" cx="1868.9" cy="1318.3" r="20.2"/>
		<g>
			<g>
				<path class="st1" d="M1701.2,1174.8l-60.4-60.4c-0.6-0.6-0.6-1.7,0-2.3l22.4-22.4c0.6-0.6,1.7-0.6,2.3,0l60.4,60.4
					c0.6,0.6,0.6,1.7,0,2.3l-22.4,22.4C1702.8,1175.5,1701.8,1175.5,1701.2,1174.8z"/>
			</g>
		</g>
		<circle class="st1" cx="1745.1" cy="1194.4" r="20.2"/>
		<g>
			<g>
				<path class="st1" d="M1701.2,1174.8l-60.4-60.4c-0.6-0.6-0.6-1.7,0-2.3l22.4-22.4c0.6-0.6,1.7-0.6,2.3,0l60.4,60.4
					c0.6,0.6,0.6,1.7,0,2.3l-22.4,22.4C1702.8,1175.5,1701.8,1175.5,1701.2,1174.8z"/>
			</g>
		</g>
		<g>
			<g>
				<path class="st1" d="M1577.3,1051l-60.4-60.4c-0.6-0.6-0.6-1.7,0-2.3l22.4-22.4c0.6-0.6,1.7-0.6,2.3,0l60.4,60.4
					c0.6,0.6,0.6,1.7,0,2.3l-22.4,22.4C1578.9,1051.6,1577.9,1051.6,1577.3,1051z"/>
			</g>
		</g>
		<circle class="st1" cx="1621.2" cy="1070.5" r="20.2"/>
		<g>
			<g>
				<path class="st1" d="M1577.3,1051l-60.4-60.4c-0.6-0.6-0.6-1.7,0-2.3l22.4-22.4c0.6-0.6,1.7-0.6,2.3,0l60.4,60.4
					c0.6,0.6,0.6,1.7,0,2.3l-22.4,22.4C1578.9,1051.6,1577.9,1051.6,1577.3,1051z"/>
			</g>
		</g>
		<g>
			<g>
				<path class="st1" d="M1453.4,927.1l-60.4-60.4c-0.6-0.6-0.6-1.7,0-2.3l22.4-22.4c0.6-0.6,1.7-0.6,2.3,0l60.4,60.4
					c0.6,0.6,0.6,1.7,0,2.3l-22.4,22.4C1455.1,927.7,1454,927.7,1453.4,927.1z"/>
			</g>
		</g>
		<circle class="st1" cx="1497.3" cy="946.6" r="20.2"/>
		<g>
			<g>
				<path class="st1" d="M1453.4,927.1l-60.4-60.4c-0.6-0.6-0.6-1.7,0-2.3l22.4-22.4c0.6-0.6,1.7-0.6,2.3,0l60.4,60.4
					c0.6,0.6,0.6,1.7,0,2.3l-22.4,22.4C1455.1,927.7,1454,927.7,1453.4,927.1z"/>
			</g>
		</g>
		<g>
			<g>
				<path class="st1" d="M1329.5,803.2l-60.4-60.4c-0.6-0.6-0.6-1.7,0-2.3l22.4-22.4c0.6-0.6,1.7-0.6,2.3,0l60.4,60.4
					c0.6,0.6,0.6,1.7,0,2.3l-22.4,22.4C1331.2,803.8,1330.2,803.8,1329.5,803.2z"/>
			</g>
		</g>
		<circle class="st1" cx="1373.4" cy="822.8" r="20.2"/>
		<g>
			<g>
				<path class="st1" d="M1329.5,803.2l-60.4-60.4c-0.6-0.6-0.6-1.7,0-2.3l22.4-22.4c0.6-0.6,1.7-0.6,2.3,0l60.4,60.4
					c0.6,0.6,0.6,1.7,0,2.3l-22.4,22.4C1331.2,803.8,1330.2,803.8,1329.5,803.2z"/>
			</g>
		</g>
		<circle class="st1" cx="1249.5" cy="698.9" r="20.2"/>
		<g>
			<g>
				<path class="st1" d="M1795.5,1080.5l-60.4-60.4c-0.6-0.6-0.6-1.7,0-2.3l22.4-22.4c0.6-0.6,1.7-0.6,2.3,0l60.4,60.4
					c0.6,0.6,0.6,1.7,0,2.3l-22.4,22.4C1797.2,1081.2,1796.1,1081.2,1795.5,1080.5z"/>
			</g>
		</g>
		<circle class="st1" cx="1839.4" cy="1100.1" r="20.2"/>
		<g>
			<g>
				<path class="st1" d="M1795.5,1080.5l-60.4-60.4c-0.6-0.6-0.6-1.7,0-2.3l22.4-22.4c0.6-0.6,1.7-0.6,2.3,0l60.4,60.4
					c0.6,0.6,0.6,1.7,0,2.3l-22.4,22.4C1797.2,1081.2,1796.1,1081.2,1795.5,1080.5z"/>
			</g>
		</g>
		<g>
			<g>
				<path class="st1" d="M1671.6,956.6l-60.4-60.4c-0.6-0.6-0.6-1.7,0-2.3l22.4-22.4c0.6-0.6,1.7-0.6,2.3,0l60.4,60.4
					c0.6,0.6,0.6,1.7,0,2.3l-22.4,22.4C1673.3,957.3,1672.2,957.3,1671.6,956.6z"/>
			</g>
		</g>
		<circle class="st1" cx="1715.5" cy="976.2" r="20.2"/>
		<g>
			<g>
				<path class="st1" d="M1671.6,956.6l-60.4-60.4c-0.6-0.6-0.6-1.7,0-2.3l22.4-22.4c0.6-0.6,1.7-0.6,2.3,0l60.4,60.4
					c0.6,0.6,0.6,1.7,0,2.3l-22.4,22.4C1673.3,957.3,1672.2,957.3,1671.6,956.6z"/>
			</g>
		</g>
		<g>
			<g>
				<path class="st1" d="M1547.7,832.8l-60.4-60.4c-0.6-0.6-0.6-1.7,0-2.3l22.4-22.4c0.6-0.6,1.7-0.6,2.3,0l60.4,60.4
					c0.6,0.6,0.6,1.7,0,2.3l-22.4,22.4C1549.4,833.4,1548.4,833.4,1547.7,832.8z"/>
			</g>
		</g>
		<circle class="st1" cx="1591.6" cy="852.3" r="20.2"/>
		<g>
			<g>
				<path class="st1" d="M1547.7,832.8l-60.4-60.4c-0.6-0.6-0.6-1.7,0-2.3l22.4-22.4c0.6-0.6,1.7-0.6,2.3,0l60.4,60.4
					c0.6,0.6,0.6,1.7,0,2.3l-22.4,22.4C1549.4,833.4,1548.4,833.4,1547.7,832.8z"/>
			</g>
		</g>
		<g>
			<g>
				<path class="st1" d="M1423.8,708.9l-60.4-60.4c-0.6-0.6-0.6-1.7,0-2.3l22.4-22.4c0.6-0.6,1.7-0.6,2.3,0l60.4,60.4
					c0.6,0.6,0.6,1.7,0,2.3l-22.4,22.4C1425.5,709.5,1424.5,709.5,1423.8,708.9z"/>
			</g>
		</g>
		<circle class="st1" cx="1467.8" cy="728.4" r="20.2"/>
		<g>
			<g>
				<path class="st1" d="M1423.8,708.9l-60.4-60.4c-0.6-0.6-0.6-1.7,0-2.3l22.4-22.4c0.6-0.6,1.7-0.6,2.3,0l60.4,60.4
					c0.6,0.6,0.6,1.7,0,2.3l-22.4,22.4C1425.5,709.5,1424.5,709.5,1423.8,708.9z"/>
			</g>
		</g>
		<circle class="st1" cx="1343.9" cy="604.5" r="20.2"/>
		<g>
			<g>
				<path class="st1" d="M1888,988l-60.4-60.4c-0.6-0.6-0.6-1.7,0-2.3l22.4-22.4c0.6-0.6,1.7-0.6,2.3,0l60.4,60.4
					c0.6,0.6,0.6,1.7,0,2.3l-22.4,22.4C1889.7,988.6,1888.7,988.6,1888,988z"/>
			</g>
		</g>
		<circle class="st1" cx="1931.9" cy="1007.5" r="20.2"/>
		<g>
			<g>
				<path class="st1" d="M1888,988l-60.4-60.4c-0.6-0.6-0.6-1.7,0-2.3l22.4-22.4c0.6-0.6,1.7-0.6,2.3,0l60.4,60.4
					c0.6,0.6,0.6,1.7,0,2.3l-22.4,22.4C1889.7,988.6,1888.7,988.6,1888,988z"/>
			</g>
		</g>
		<g>
			<g>
				<path class="st1" d="M1764.2,864.1l-60.4-60.4c-0.6-0.6-0.6-1.7,0-2.3l22.4-22.4c0.6-0.6,1.7-0.6,2.3,0l60.4,60.4
					c0.6,0.6,0.6,1.7,0,2.3l-22.4,22.4C1765.8,864.7,1764.8,864.7,1764.2,864.1z"/>
			</g>
		</g>
		<circle class="st1" cx="1808.1" cy="883.6" r="20.2"/>
		<g>
			<g>
				<path class="st1" d="M1764.2,864.1l-60.4-60.4c-0.6-0.6-0.6-1.7,0-2.3l22.4-22.4c0.6-0.6,1.7-0.6,2.3,0l60.4,60.4
					c0.6,0.6,0.6,1.7,0,2.3l-22.4,22.4C1765.8,864.7,1764.8,864.7,1764.2,864.1z"/>
			</g>
		</g>
		<g>
			<g>
				<path class="st1" d="M1640.3,740.2l-60.4-60.4c-0.6-0.6-0.6-1.7,0-2.3l22.4-22.4c0.6-0.6,1.7-0.6,2.3,0l60.4,60.4
					c0.6,0.6,0.6,1.7,0,2.3l-22.4,22.4C1641.9,740.8,1640.9,740.8,1640.3,740.2z"/>
			</g>
		</g>
		<circle class="st1" cx="1684.2" cy="759.8" r="20.2"/>
		<g>
			<g>
				<path class="st1" d="M1640.3,740.2l-60.4-60.4c-0.6-0.6-0.6-1.7,0-2.3l22.4-22.4c0.6-0.6,1.7-0.6,2.3,0l60.4,60.4
					c0.6,0.6,0.6,1.7,0,2.3l-22.4,22.4C1641.9,740.8,1640.9,740.8,1640.3,740.2z"/>
			</g>
		</g>
		<g>
			<g>
				<path class="st1" d="M1516.4,616.3l-60.4-60.4c-0.6-0.6-0.6-1.7,0-2.3l22.4-22.4c0.6-0.6,1.7-0.6,2.3,0l60.4,60.4
					c0.6,0.6,0.6,1.7,0,2.3l-22.4,22.4C1518.1,617,1517,617,1516.4,616.3z"/>
			</g>
		</g>
		<circle class="st1" cx="1560.3" cy="635.9" r="20.2"/>
		<g>
			<g>
				<path class="st1" d="M1516.4,616.3l-60.4-60.4c-0.6-0.6-0.6-1.7,0-2.3l22.4-22.4c0.6-0.6,1.7-0.6,2.3,0l60.4,60.4
					c0.6,0.6,0.6,1.7,0,2.3l-22.4,22.4C1518.1,617,1517,617,1516.4,616.3z"/>
			</g>
		</g>
		<circle class="st1" cx="1436.4" cy="512" r="20.2"/>
		<g>
			<g>
				<path class="st1" d="M1715.1,1285.2l-60.4-60.4c-0.6-0.6-0.6-1.7,0-2.3l22.4-22.4c0.6-0.6,1.7-0.6,2.3,0l60.4,60.4
					c0.6,0.6,0.6,1.7,0,2.3l-22.4,22.4C1716.8,1285.9,1715.7,1285.9,1715.1,1285.2z"/>
			</g>
		</g>
		<circle class="st1" cx="1759" cy="1304.8" r="20.2"/>
		<g>
			<g>
				<path class="st1" d="M1591.2,1161.3l-60.4-60.4c-0.6-0.6-0.6-1.7,0-2.3l22.4-22.4c0.6-0.6,1.7-0.6,2.3,0l60.4,60.4
					c0.6,0.6,0.6,1.7,0,2.3l-22.4,22.4C1592.9,1162,1591.9,1162,1591.2,1161.3z"/>
			</g>
		</g>
		<circle class="st1" cx="1635.1" cy="1180.9" r="20.2"/>
		<g>
			<g>
				<path class="st1" d="M1467.9,1038l-60.4-60.4c-0.6-0.6-0.6-1.7,0-2.3l22.4-22.4c0.6-0.6,1.7-0.6,2.3,0l60.4,60.4
					c0.6,0.6,0.6,1.7,0,2.3l-22.4,22.4C1469.6,1038.7,1468.5,1038.7,1467.9,1038z"/>
			</g>
		</g>
		<circle class="st1" cx="1511.8" cy="1057.6" r="20.2"/>
		<g>
			<g>
				<path class="st1" d="M1344,914.2l-60.4-60.4c-0.6-0.6-0.6-1.7,0-2.3L1306,829c0.6-0.6,1.7-0.6,2.3,0l60.4,60.4
					c0.6,0.6,0.6,1.7,0,2.3l-22.4,22.4C1345.7,914.8,1344.7,914.8,1344,914.2z"/>
			</g>
		</g>
		<circle class="st1" cx="1387.9" cy="933.7" r="20.2"/>
		<g>
			<g>
				<path class="st1" d="M1220.1,790.3l-60.4-60.4c-0.6-0.6-0.6-1.7,0-2.3l22.4-22.4c0.6-0.6,1.7-0.6,2.3,0l60.4,60.4
					c0.6,0.6,0.6,1.7,0,2.3l-22.4,22.4C1221.8,790.9,1220.8,790.9,1220.1,790.3z"/>
			</g>
		</g>
		<circle class="st1" cx="1264.1" cy="809.8" r="20.2"/>
		<circle class="st1" cx="1140.2" cy="685.9" r="20.2"/>
		<g>
			<g>
				<path class="st1" d="M1685.7,1066.9l-60.4-60.4c-0.6-0.6-0.6-1.7,0-2.3l22.4-22.4c0.6-0.6,1.7-0.6,2.3,0l60.4,60.4
					c0.6,0.6,0.6,1.7,0,2.3l-22.4,22.4C1687.4,1067.5,1686.3,1067.5,1685.7,1066.9z"/>
			</g>
		</g>
		<circle class="st1" cx="1729.6" cy="1086.4" r="20.2"/>
		<g>
			<g>
				<path class="st1" d="M1562.4,943.5l-60.4-60.4c-0.6-0.6-0.6-1.7,0-2.3l22.4-22.4c0.6-0.6,1.7-0.6,2.3,0l60.4,60.4
					c0.6,0.6,0.6,1.7,0,2.3l-22.4,22.4C1564.1,944.2,1563,944.2,1562.4,943.5z"/>
			</g>
		</g>
		<circle class="st1" cx="1606.3" cy="963.1" r="20.2"/>
		<g>
			<g>
				<path class="st1" d="M1438.5,819.7l-60.4-60.4c-0.6-0.6-0.6-1.7,0-2.3l22.4-22.4c0.6-0.6,1.7-0.6,2.3,0l60.4,60.4
					c0.6,0.6,0.6,1.7,0,2.3l-22.4,22.4C1440.2,820.3,1439.2,820.3,1438.5,819.7z"/>
			</g>
		</g>
		<circle class="st1" cx="1482.4" cy="839.2" r="20.2"/>
		<g>
			<g>
				<path class="st1" d="M1314.6,695.8l-60.4-60.4c-0.6-0.6-0.6-1.7,0-2.3l22.4-22.4c0.6-0.6,1.7-0.6,2.3,0l60.4,60.4
					c0.6,0.6,0.6,1.7,0,2.3l-22.4,22.4C1316.3,696.4,1315.3,696.4,1314.6,695.8z"/>
			</g>
		</g>
		<circle class="st1" cx="1358.6" cy="715.3" r="20.2"/>
		<circle class="st1" cx="1234.7" cy="591.4" r="20.2"/>
		<g>
			<g>
				<path class="st1" d="M1903.8,1096.6l-60.4-60.4c-0.6-0.6-0.6-1.7,0-2.3l22.4-22.4c0.6-0.6,1.7-0.6,2.3,0l60.4,60.4
					c0.6,0.6,0.6,1.7,0,2.3l-22.4,22.4C1905.4,1097.2,1904.4,1097.2,1903.8,1096.6z"/>
			</g>
		</g>
		<g>
			<g>
				<path class="st1" d="M1780,972.5l-60.4-60.4c-0.6-0.6-0.6-1.7,0-2.3l22.4-22.4c0.6-0.6,1.7-0.6,2.3,0l60.4,60.4
					c0.6,0.6,0.6,1.7,0,2.3l-22.4,22.4C1781.7,973.2,1780.7,973.2,1780,972.5z"/>
			</g>
		</g>
		<circle class="st1" cx="1824" cy="992.1" r="20.2"/>
		<g>
			<g>
				<path class="st1" d="M1656.7,849.2l-60.4-60.4c-0.6-0.6-0.6-1.7,0-2.3l22.4-22.4c0.6-0.6,1.7-0.6,2.3,0l60.4,60.4
					c0.6,0.6,0.6,1.7,0,2.3l-22.4,22.4C1658.4,849.8,1657.4,849.8,1656.7,849.2z"/>
			</g>
		</g>
		<circle class="st1" cx="1700.6" cy="868.8" r="20.2"/>
		<g>
			<g>
				<path class="st1" d="M1532.8,725.3l-60.4-60.4c-0.6-0.6-0.6-1.7,0-2.3l22.4-22.4c0.6-0.6,1.7-0.6,2.3,0l60.4,60.4
					c0.6,0.6,0.6,1.7,0,2.3l-22.4,22.4C1534.5,726,1533.5,726,1532.8,725.3z"/>
			</g>
		</g>
		<circle class="st1" cx="1576.8" cy="744.9" r="20.2"/>
		<circle class="st1" cx="1452.9" cy="621" r="20.2"/>
		<g>
			<g>
				<path class="st1" d="M1730.7,1393.1l-60.4-60.4c-0.6-0.6-0.6-1.7,0-2.3l22.4-22.4c0.6-0.6,1.7-0.6,2.3,0l60.4,60.4
					c0.6,0.6,0.6,1.7,0,2.3l-22.4,22.4C1732.4,1393.7,1731.3,1393.7,1730.7,1393.1z"/>
			</g>
		</g>
		<g>
			<g>
				<path class="st1" d="M1606.8,1269.2l-60.4-60.4c-0.6-0.6-0.6-1.7,0-2.3l22.4-22.4c0.6-0.6,1.7-0.6,2.3,0l60.4,60.4
					c0.6,0.6,0.6,1.7,0,2.3l-22.4,22.4C1608.5,1269.8,1607.5,1269.8,1606.8,1269.2z"/>
			</g>
		</g>
		<circle class="st1" cx="1650.7" cy="1288.7" r="20.2"/>
		<g>
			<g>
				<path class="st1" d="M1482.9,1145.3l-60.4-60.4c-0.6-0.6-0.6-1.7,0-2.3l22.4-22.4c0.6-0.6,1.7-0.6,2.3,0l60.4,60.4
					c0.6,0.6,0.6,1.7,0,2.3l-22.4,22.4C1484.6,1145.9,1483.6,1145.9,1482.9,1145.3z"/>
			</g>
		</g>
		<circle class="st1" cx="1526.9" cy="1164.8" r="20.2"/>
		<g>
			<g>
				<path class="st1" d="M1482.9,1145.3l-60.4-60.4c-0.6-0.6-0.6-1.7,0-2.3l22.4-22.4c0.6-0.6,1.7-0.6,2.3,0l60.4,60.4
					c0.6,0.6,0.6,1.7,0,2.3l-22.4,22.4C1484.6,1145.9,1483.6,1145.9,1482.9,1145.3z"/>
			</g>
		</g>
		<g>
			<g>
				<path class="st1" d="M1359.1,1021.4l-60.4-60.4c-0.6-0.6-0.6-1.7,0-2.3l22.4-22.4c0.6-0.6,1.7-0.6,2.3,0l60.4,60.4
					c0.6,0.6,0.6,1.7,0,2.3l-22.4,22.4C1360.7,1022.1,1359.7,1022.1,1359.1,1021.4z"/>
			</g>
		</g>
		<circle class="st1" cx="1403" cy="1041" r="20.2"/>
		<g>
			<g>
				<path class="st1" d="M1235.2,897.5l-60.4-60.4c-0.6-0.6-0.6-1.7,0-2.3l22.4-22.4c0.6-0.6,1.7-0.6,2.3,0l60.4,60.4
					c0.6,0.6,0.6,1.7,0,2.3l-22.4,22.4C1236.9,898.2,1235.8,898.2,1235.2,897.5z"/>
			</g>
		</g>
		<circle class="st1" cx="1279.1" cy="917.1" r="20.2"/>
		<g>
			<g>
				<path class="st1" d="M1235.2,897.5l-60.4-60.4c-0.6-0.6-0.6-1.7,0-2.3l22.4-22.4c0.6-0.6,1.7-0.6,2.3,0l60.4,60.4
					c0.6,0.6,0.6,1.7,0,2.3l-22.4,22.4C1236.9,898.2,1235.8,898.2,1235.2,897.5z"/>
			</g>
		</g>
		<g>
			<g>
				<path class="st1" d="M1111.3,773.7l-60.4-60.4c-0.6-0.6-0.6-1.7,0-2.3l22.4-22.4c0.6-0.6,1.7-0.6,2.3,0L1136,749
					c0.6,0.6,0.6,1.7,0,2.3l-22.4,22.4C1113,774.3,1111.9,774.3,1111.3,773.7z"/>
			</g>
		</g>
		<circle class="st1" cx="1155.2" cy="793.2" r="20.2"/>
		<circle class="st1" cx="1031.3" cy="669.3" r="20.2"/>
		<g>
			<g>
				<path class="st1" d="M1620.8,1379.6l-60.4-60.4c-0.6-0.6-0.6-1.7,0-2.3l22.4-22.4c0.6-0.6,1.7-0.6,2.3,0l60.4,60.4
					c0.6,0.6,0.6,1.7,0,2.3l-22.4,22.4C1622.4,1380.2,1621.4,1380.2,1620.8,1379.6z"/>
			</g>
		</g>
		<g>
			<g>
				<path class="st1" d="M1496.9,1255.7l-60.4-60.4c-0.6-0.6-0.6-1.7,0-2.3l22.4-22.4c0.6-0.6,1.7-0.6,2.3,0l60.4,60.4
					c0.6,0.6,0.6,1.7,0,2.3l-22.4,22.4C1498.6,1256.3,1497.5,1256.3,1496.9,1255.7z"/>
			</g>
		</g>
		<circle class="st1" cx="1540.8" cy="1275.2" r="20.2"/>
		<g>
			<g>
				<path class="st1" d="M1373,1131.8l-60.4-60.4c-0.6-0.6-0.6-1.7,0-2.3l22.4-22.4c0.6-0.6,1.7-0.6,2.3,0l60.4,60.4
					c0.6,0.6,0.6,1.7,0,2.3l-22.4,22.4C1374.7,1132.4,1373.6,1132.4,1373,1131.8z"/>
			</g>
		</g>
		<circle class="st1" cx="1416.9" cy="1151.3" r="20.2"/>
		<g>
			<g>
				<path class="st1" d="M1373,1131.8l-60.4-60.4c-0.6-0.6-0.6-1.7,0-2.3l22.4-22.4c0.6-0.6,1.7-0.6,2.3,0l60.4,60.4
					c0.6,0.6,0.6,1.7,0,2.3l-22.4,22.4C1374.7,1132.4,1373.6,1132.4,1373,1131.8z"/>
			</g>
		</g>
		<g>
			<g>
				<path class="st1" d="M1249.1,1007.9l-60.4-60.4c-0.6-0.6-0.6-1.7,0-2.3l22.4-22.4c0.6-0.6,1.7-0.6,2.3,0l60.4,60.4
					c0.6,0.6,0.6,1.7,0,2.3l-22.4,22.4C1250.8,1008.6,1249.8,1008.6,1249.1,1007.9z"/>
			</g>
		</g>
		<circle class="st1" cx="1293" cy="1027.5" r="20.2"/>
		<g>
			<g>
				<path class="st1" d="M1125.2,884l-60.4-60.4c-0.6-0.6-0.6-1.7,0-2.3l22.4-22.4c0.6-0.6,1.7-0.6,2.3,0l60.4,60.4
					c0.6,0.6,0.6,1.7,0,2.3l-22.4,22.4C1126.9,884.7,1125.9,884.7,1125.2,884z"/>
			</g>
		</g>
		<circle class="st1" cx="1169.2" cy="903.6" r="20.2"/>
		<g>
			<g>
				<path class="st1" d="M1125.2,884l-60.4-60.4c-0.6-0.6-0.6-1.7,0-2.3l22.4-22.4c0.6-0.6,1.7-0.6,2.3,0l60.4,60.4
					c0.6,0.6,0.6,1.7,0,2.3l-22.4,22.4C1126.9,884.7,1125.9,884.7,1125.2,884z"/>
			</g>
		</g>
		<circle class="st1" cx="1045.3" cy="779.7" r="20.2"/>
		<g>
			<g>
				<path class="st1" d="M1829.1,551.4l-60.4-60.4c-0.6-0.6-0.6-1.7,0-2.3l22.4-22.4c0.6-0.6,1.7-0.6,2.3,0l60.4,60.4
					c0.6,0.6,0.6,1.7,0,2.3l-22.4,22.4C1830.8,552,1829.7,552,1829.1,551.4z"/>
			</g>
		</g>
		<circle class="st1" cx="1873" cy="570.9" r="20.2"/>
		<g>
			<g>
				<path class="st1" d="M1829.1,551.4l-60.4-60.4c-0.6-0.6-0.6-1.7,0-2.3l22.4-22.4c0.6-0.6,1.7-0.6,2.3,0l60.4,60.4
					c0.6,0.6,0.6,1.7,0,2.3l-22.4,22.4C1830.8,552,1829.7,552,1829.1,551.4z"/>
			</g>
		</g>
		<g>
			<g>
				<path class="st1" d="M1705.2,427.5l-60.4-60.4c-0.6-0.6-0.6-1.7,0-2.3l22.4-22.4c0.6-0.6,1.7-0.6,2.3,0l60.4,60.4
					c0.6,0.6,0.6,1.7,0,2.3l-22.4,22.4C1706.9,428.1,1705.9,428.1,1705.2,427.5z"/>
			</g>
		</g>
		<circle class="st1" cx="1749.1" cy="447.1" r="20.2"/>
		<g>
			<g>
				<path class="st1" d="M1705.2,427.5l-60.4-60.4c-0.6-0.6-0.6-1.7,0-2.3l22.4-22.4c0.6-0.6,1.7-0.6,2.3,0l60.4,60.4
					c0.6,0.6,0.6,1.7,0,2.3l-22.4,22.4C1706.9,428.1,1705.9,428.1,1705.2,427.5z"/>
			</g>
		</g>
		<circle class="st1" cx="1625.3" cy="323.2" r="20.2"/>
		<circle class="st1" cx="1715.5" cy="225.1" r="20.2"/>
		<g>
			<g>
				<path class="st1" d="M1923.4,457.1l-60.4-60.4c-0.6-0.6-0.6-1.7,0-2.3l22.4-22.4c0.6-0.6,1.7-0.6,2.3,0l60.4,60.4
					c0.6,0.6,0.6,1.7,0,2.3l-22.4,22.4C1925.1,457.7,1924.1,457.7,1923.4,457.1z"/>
			</g>
		</g>
		<g>
			<g>
				<path class="st1" d="M1923.4,457.1l-60.4-60.4c-0.6-0.6-0.6-1.7,0-2.3l22.4-22.4c0.6-0.6,1.7-0.6,2.3,0l60.4,60.4
					c0.6,0.6,0.6,1.7,0,2.3l-22.4,22.4C1925.1,457.7,1924.1,457.7,1923.4,457.1z"/>
			</g>
		</g>
		<g>
			<g>
				<path class="st1" d="M1799.5,333.2l-60.4-60.4c-0.6-0.6-0.6-1.7,0-2.3l22.4-22.4c0.6-0.6,1.7-0.6,2.3,0l60.4,60.4
					c0.6,0.6,0.6,1.7,0,2.3l-22.4,22.4C1801.2,333.8,1800.2,333.8,1799.5,333.2z"/>
			</g>
		</g>
		<circle class="st1" cx="1843.5" cy="352.7" r="20.2"/>
		<g>
			<g>
				<path class="st1" d="M1799.5,333.2l-60.4-60.4c-0.6-0.6-0.6-1.7,0-2.3l22.4-22.4c0.6-0.6,1.7-0.6,2.3,0l60.4,60.4
					c0.6,0.6,0.6,1.7,0,2.3l-22.4,22.4C1801.2,333.8,1800.2,333.8,1799.5,333.2z"/>
			</g>
		</g>
		<g>
			<g>
				<path class="st1" d="M1892.1,240.6l-60.4-60.4c-0.6-0.6-0.6-1.7,0-2.3l22.4-22.4c0.6-0.6,1.7-0.6,2.3,0l60.4,60.4
					c0.6,0.6,0.6,1.7,0,2.3l-22.4,22.4C1893.8,241.3,1892.7,241.3,1892.1,240.6z"/>
			</g>
		</g>
		<circle class="st1" cx="1936" cy="260.2" r="20.2"/>
		<g>
			<g>
				<path class="st1" d="M1892.1,240.6l-60.4-60.4c-0.6-0.6-0.6-1.7,0-2.3l22.4-22.4c0.6-0.6,1.7-0.6,2.3,0l60.4,60.4
					c0.6,0.6,0.6,1.7,0,2.3l-22.4,22.4C1893.8,241.3,1892.7,241.3,1892.1,240.6z"/>
			</g>
		</g>
		<circle class="st1" cx="1812.1" cy="136.3" r="20.2"/>
		<g>
			<g>
				<path class="st1" d="M1843.6,662.3l-60.4-60.4c-0.6-0.6-0.6-1.7,0-2.3l22.4-22.4c0.6-0.6,1.7-0.6,2.3,0l60.4,60.4
					c0.6,0.6,0.6,1.7,0,2.3l-22.4,22.4C1845.3,663,1844.2,663,1843.6,662.3z"/>
			</g>
		</g>
		<circle class="st1" cx="1887.5" cy="681.9" r="20.2"/>
		<g>
			<g>
				<path class="st1" d="M1719.7,538.5l-60.4-60.4c-0.6-0.6-0.6-1.7,0-2.3l22.4-22.4c0.6-0.6,1.7-0.6,2.3,0l60.4,60.4
					c0.6,0.6,0.6,1.7,0,2.3l-22.4,22.4C1721.4,539.1,1720.4,539.1,1719.7,538.5z"/>
			</g>
		</g>
		<circle class="st1" cx="1763.6" cy="558" r="20.2"/>
		<g>
			<g>
				<path class="st1" d="M1595.9,414.6l-60.4-60.4c-0.6-0.6-0.6-1.7,0-2.3l22.4-22.4c0.6-0.6,1.7-0.6,2.3,0l60.4,60.4
					c0.6,0.6,0.6,1.7,0,2.3l-22.4,22.4C1597.5,415.2,1596.5,415.2,1595.9,414.6z"/>
			</g>
		</g>
		<circle class="st1" cx="1639.8" cy="434.1" r="20.2"/>
		<circle class="st1" cx="1515.9" cy="310.2" r="20.2"/>
		<g>
			<g>
				<path class="st1" d="M1938.1,567.8l-60.4-60.4c-0.6-0.6-0.6-1.7,0-2.3l22.4-22.4c0.6-0.6,1.7-0.6,2.3,0l60.4,60.4
					c0.6,0.6,0.6,1.7,0,2.3l-22.4,22.4C1939.8,568.5,1938.7,568.5,1938.1,567.8z"/>
			</g>
		</g>
		<g>
			<g>
				<path class="st1" d="M1814.2,444l-60.4-60.4c-0.6-0.6-0.6-1.7,0-2.3l22.4-22.4c0.6-0.6,1.7-0.6,2.3,0l60.4,60.4
					c0.6,0.6,0.6,1.7,0,2.3l-22.4,22.4C1815.9,444.6,1814.9,444.6,1814.2,444z"/>
			</g>
		</g>
		<circle class="st1" cx="1858.1" cy="463.5" r="20.2"/>
		<circle class="st1" cx="1734.3" cy="339.6" r="20.2"/>
		<g>
			<g>
				<path class="st1" d="M1908.6,349.6l-60.4-60.4c-0.6-0.6-0.6-1.7,0-2.3l22.4-22.4c0.6-0.6,1.7-0.6,2.3,0l60.4,60.4
					c0.6,0.6,0.6,1.7,0,2.3l-22.4,22.4C1910.2,350.3,1909.2,350.3,1908.6,349.6z"/>
			</g>
		</g>
		<circle class="st1" cx="1828.6" cy="245.3" r="20.2"/>
		<g>
			<g>
				<path class="st1" d="M1858.6,769.6l-60.4-60.4c-0.6-0.6-0.6-1.7,0-2.3l22.4-22.4c0.6-0.6,1.7-0.6,2.3,0l60.4,60.4
					c0.6,0.6,0.6,1.7,0,2.3l-22.4,22.4C1860.3,770.2,1859.3,770.2,1858.6,769.6z"/>
			</g>
		</g>
		<circle class="st1" cx="1902.6" cy="789.1" r="20.2"/>
		<g>
			<g>
				<path class="st1" d="M1858.6,769.6l-60.4-60.4c-0.6-0.6-0.6-1.7,0-2.3l22.4-22.4c0.6-0.6,1.7-0.6,2.3,0l60.4,60.4
					c0.6,0.6,0.6,1.7,0,2.3l-22.4,22.4C1860.3,770.2,1859.3,770.2,1858.6,769.6z"/>
			</g>
		</g>
		<g>
			<g>
				<path class="st1" d="M1734.8,645.7l-60.4-60.4c-0.6-0.6-0.6-1.7,0-2.3l22.4-22.4c0.6-0.6,1.7-0.6,2.3,0l60.4,60.4
					c0.6,0.6,0.6,1.7,0,2.3l-22.4,22.4C1736.4,646.4,1735.4,646.4,1734.8,645.7z"/>
			</g>
		</g>
		<circle class="st1" cx="1778.7" cy="665.3" r="20.2"/>
		<g>
			<g>
				<path class="st1" d="M1610.9,521.8l-60.4-60.4c-0.6-0.6-0.6-1.7,0-2.3l22.4-22.4c0.6-0.6,1.7-0.6,2.3,0l60.4,60.4
					c0.6,0.6,0.6,1.7,0,2.3l-22.4,22.4C1612.6,522.5,1611.5,522.5,1610.9,521.8z"/>
			</g>
		</g>
		<circle class="st1" cx="1654.8" cy="541.4" r="20.2"/>
		<g>
			<g>
				<path class="st1" d="M1610.9,521.8l-60.4-60.4c-0.6-0.6-0.6-1.7,0-2.3l22.4-22.4c0.6-0.6,1.7-0.6,2.3,0l60.4,60.4
					c0.6,0.6,0.6,1.7,0,2.3l-22.4,22.4C1612.6,522.5,1611.5,522.5,1610.9,521.8z"/>
			</g>
		</g>
		<circle class="st1" cx="1530.9" cy="417.5" r="20.2"/>
		<g>
			<g>
				<path class="st1" d="M1872.6,880l-60.4-60.4c-0.6-0.6-0.6-1.7,0-2.3l22.4-22.4c0.6-0.6,1.7-0.6,2.3,0l60.4,60.4
					c0.6,0.6,0.6,1.7,0,2.3l-22.4,22.4C1874.3,880.6,1873.2,880.6,1872.6,880z"/>
			</g>
		</g>
		<circle class="st1" cx="1916.5" cy="899.5" r="20.2"/>
		<g>
			<g>
				<path class="st1" d="M1748.7,756.1l-60.4-60.4c-0.6-0.6-0.6-1.7,0-2.3l22.4-22.4c0.6-0.6,1.7-0.6,2.3,0l60.4,60.4
					c0.6,0.6,0.6,1.7,0,2.3l-22.4,22.4C1750.4,756.7,1749.3,756.7,1748.7,756.1z"/>
			</g>
		</g>
		<circle class="st1" cx="1792.6" cy="775.6" r="20.2"/>
		<g>
			<g>
				<path class="st1" d="M1748.7,756.1l-60.4-60.4c-0.6-0.6-0.6-1.7,0-2.3l22.4-22.4c0.6-0.6,1.7-0.6,2.3,0l60.4,60.4
					c0.6,0.6,0.6,1.7,0,2.3l-22.4,22.4C1750.4,756.7,1749.3,756.7,1748.7,756.1z"/>
			</g>
		</g>
		<g>
			<g>
				<path class="st1" d="M1624.8,632.2l-60.4-60.4c-0.6-0.6-0.6-1.7,0-2.3l22.4-22.4c0.6-0.6,1.7-0.6,2.3,0l60.4,60.4
					c0.6,0.6,0.6,1.7,0,2.3l-22.4,22.4C1626.5,632.8,1625.5,632.8,1624.8,632.2z"/>
			</g>
		</g>
		<circle class="st1" cx="1668.7" cy="651.8" r="20.2"/>
		<circle class="st1" cx="1544.9" cy="527.9" r="20.2"/>
		<circle class="st1" cx="1906.6" cy="41.8" r="20.2"/>
		<g>
			<g>
				<path class="st1" d="M1876.7,132.6l-60.4-60.4c-0.6-0.6-0.6-1.7,0-2.3l22.4-22.4c0.6-0.6,1.7-0.6,2.3,0l60.4,60.4
					c0.6,0.6,0.6,1.7,0,2.3l-22.4,22.4C1878.3,133.3,1877.3,133.3,1876.7,132.6z"/>
			</g>
		</g>
		<circle class="st1" cx="1920.6" cy="152.2" r="20.2"/>
		<g>
			<g>
				<path class="st1" d="M1876.7,132.6l-60.4-60.4c-0.6-0.6-0.6-1.7,0-2.3l22.4-22.4c0.6-0.6,1.7-0.6,2.3,0l60.4,60.4
					c0.6,0.6,0.6,1.7,0,2.3l-22.4,22.4C1878.3,133.3,1877.3,133.3,1876.7,132.6z"/>
			</g>
		</g>
		<circle class="st1" cx="1796.7" cy="28.3" r="20.2"/>
	</g>
</g>
<g>
</g>
<g>
</g>
<g>
</g>
<g>
</g>
<g>
</g>
<g>
</g>
</svg>
